<?xml version="1.0" encoding="UTF-8" standalone="no"?>
<!-- Created with Inkscape (http://www.inkscape.org/) -->

<svg
   width="48"
   height="48"
   viewBox="0 0 285.74999 285.75"
   version="1.1"
   id="svg1"
   xmlns="http://www.w3.org/2000/svg"
   xmlns:svg="http://www.w3.org/2000/svg"
   style="fill:#10b981">
  <path
       d="m 187.4512,69.961076 q 0,13.585126 -2.12266,22.9249 -1.69815,9.339774 -7.21711,15.283264 -5.09443,5.51896 -13.58512,8.06617 -8.49071,2.12268 -21.65131,2.12268 -13.58512,0 -22.07582,-2.12268 -8.49071,-2.54721 -13.58512,-8.06617 -5.09443,-5.94349 -7.217109,-15.283264 -1.698131,-9.339774 -1.698131,-22.9249 0,-14.434197 1.698131,-23.773972 2.122679,-9.76431 7.217109,-15.283267 5.09441,-5.943493 13.58512,-8.066169 8.4907,-2.547211 22.07582,-2.547211 13.1606,0 21.65131,2.547211 8.49069,2.122676 13.58512,8.066169 5.51896,5.518957 7.21711,15.283267 2.12266,9.339775 2.12266,23.773972 z"
       id="upper-dot" />
    <path
       d="m 187.45118,216.63798 q 0,14.00967 -2.12266,23.34944 -1.69815,9.33977 -7.21711,15.28327 -5.09443,5.51896 -13.58512,7.64164 -8.4907,2.54721 -21.65131,2.54721 -13.58511,0 -22.07582,-2.54721 -8.49071,-2.12268 -13.58512,-7.64164 -5.09443,-5.9435 -7.217107,-15.28327 -1.698131,-9.33977 -1.698131,-23.34944 0,-14.00965 1.698131,-23.34942 2.122677,-9.76432 7.217107,-15.28327 5.09441,-5.51896 13.58512,-8.06617 8.49071,-2.54722 22.07582,-2.54722 13.16061,0 21.65131,2.54722 8.49069,2.54721 13.58512,8.06617 5.51896,5.51895 7.21711,15.28327 2.12266,9.33977 2.12266,23.34942 z"
       id="lower-dot" />
</svg>
